<?xml version="1.0" standalone="no"?>
<!DOCTYPE svg PUBLIC "-//W3C//DTD SVG 20010904//EN"
 "http://www.w3.org/TR/2001/REC-SVG-20010904/DTD/svg10.dtd">
<svg version="1.0" xmlns="http://www.w3.org/2000/svg"
 width="700.000000pt" height="700.000000pt" viewBox="0 0 700.000000 700.000000"
 preserveAspectRatio="xMidYMid meet">
<metadata>
Created by potrace 1.14, written by Peter Selinger 2001-2017
</metadata>
<g transform="translate(0.000000,700.000000) scale(0.100000,-0.100000)"
fill="#000000" stroke="none">
<path d="M884 6144 c-57 -20 -114 -72 -149 -135 l-30 -54 -3 -1187 -2 -1188
27 -1 c128 -3 765 0 769 4 2 2 -12 17 -33 33 -61 45 -190 173 -253 249 -135
165 -248 367 -295 530 -34 117 -38 144 -38 245 1 140 47 256 139 347 30 29 59
53 64 53 4 0 15 6 22 13 7 8 45 26 83 42 98 39 246 46 362 17 237 -60 451
-199 721 -469 l142 -142 0 829 0 830 -742 -1 c-621 -1 -750 -3 -784 -15z"/>
<path d="M2723 5328 l0 -831 87 89 c246 253 454 408 653 488 265 106 518 66
673 -107 56 -63 82 -112 105 -200 45 -176 -9 -414 -149 -656 -108 -189 -285
-396 -419 -494 -24 -17 -41 -32 -39 -35 4 -3 2548 -6 2649 -3 16 1 17 59 15
1189 l-3 1187 -27 51 c-15 29 -46 68 -69 87 -83 72 51 67 -1804 67 l-1672 0 0
-832z"/>
<path d="M1315 4818 c-150 -55 -167 -213 -50 -455 167 -345 435 -595 721 -674
77 -21 222 -32 293 -21 45 6 54 32 54 147 -2 224 -97 431 -290 628 -162 166
-364 303 -523 357 -76 25 -164 33 -205 18z"/>
<path d="M3619 4795 c-302 -103 -647 -413 -758 -682 -41 -101 -60 -192 -59
-299 0 -116 4 -133 34 -140 74 -19 258 -3 359 30 127 42 276 138 386 248 177
177 349 480 366 645 8 75 -4 119 -44 164 -58 64 -159 76 -284 34z"/>
<path d="M700 2875 c0 -462 1 -469 84 -549 93 -90 44 -85 887 -86 l739 0 0
510 c0 406 -3 510 -12 504 -7 -4 -227 -168 -488 -364 -261 -196 -480 -359
-485 -362 -9 -5 -61 57 -168 203 l-28 38 323 242 c178 133 327 245 331 249 4
4 -260 7 -588 7 l-595 0 0 -392z"/>
<path d="M3260 3256 c5 -6 151 -117 324 -246 197 -147 314 -240 311 -248 -3
-8 -44 -65 -91 -127 l-86 -114 -32 23 c-17 13 -89 67 -161 121 -71 53 -141
105 -155 115 -14 11 -70 53 -125 94 -55 42 -104 79 -110 84 -34 27 -405 302
-408 302 -2 0 -4 -230 -4 -510 l0 -510 1673 0 c1644 0 1675 1 1727 20 60 22
113 73 148 140 24 45 24 46 27 456 l3 411 -1525 0 c-1093 0 -1523 -3 -1516
-11z"/>
<path d="M2078 777 c0 -1 -2 -50 -3 -109 -2 -107 -2 -108 21 -108 13 0 24 5
24 12 0 9 3 9 12 0 7 -7 27 -12 45 -12 54 0 77 67 43 129 -6 12 -16 22 -23 22
-23 3 -42 1 -59 -6 -10 -4 -16 -2 -15 7 1 39 -5 56 -23 61 -11 3 -21 4 -22 4z
m102 -117 c22 -42 -21 -90 -47 -54 -16 22 -17 46 -1 62 18 18 36 15 48 -8z"/>
<path d="M2569 773 c-15 -4 -17 -19 -15 -106 1 -98 2 -102 24 -105 13 -2 22 2
22 9 0 10 3 10 12 1 7 -7 27 -12 45 -12 54 0 77 67 43 129 -6 12 -16 22 -23
22 -23 3 -42 1 -57 -5 -11 -5 -16 2 -17 26 -3 36 -11 46 -34 41z m91 -113 c22
-42 -21 -90 -47 -54 -16 22 -17 46 -1 62 18 18 36 15 48 -8z"/>
<path d="M782 759 c-92 -27 -88 -173 6 -196 56 -13 96 -3 100 26 3 20 1 23
-15 16 -59 -24 -103 0 -103 58 0 56 50 84 101 57 16 -9 19 -7 19 10 0 13 -10
24 -26 30 -30 12 -38 11 -82 -1z"/>
<path d="M1879 763 c-1 -5 0 -20 1 -36 1 -25 0 -26 -24 -17 -36 13 -70 -2 -84
-37 -12 -28 -12 -41 2 -80 8 -24 56 -45 76 -33 7 5 28 6 46 3 l33 -5 -2 106
c-1 104 -1 106 -24 106 -13 0 -23 -3 -24 -7z m-12 -95 c15 -20 10 -60 -10 -72
-23 -14 -45 11 -41 46 1 13 3 26 3 31 2 12 38 8 48 -5z"/>
<path d="M2872 758 c-7 -7 -12 -18 -12 -25 0 -8 -6 -16 -13 -19 -8 -3 -14 -11
-14 -19 0 -8 6 -15 14 -15 9 0 13 -17 13 -60 0 -57 1 -60 25 -60 24 0 25 3 25
60 0 54 2 60 21 60 14 0 19 5 17 18 -2 10 -11 16 -21 14 -10 -2 -17 3 -17 12
0 8 10 16 22 18 12 2 23 9 26 16 5 16 -70 16 -86 0z"/>
<path d="M3304 754 c3 -9 6 -18 6 -20 0 -2 9 -4 20 -4 13 0 20 7 20 20 0 15
-7 20 -26 20 -20 0 -25 -4 -20 -16z"/>
<path d="M1460 740 c0 -12 -6 -23 -13 -26 -17 -6 -18 -34 -1 -34 9 0 13 -14
12 -45 0 -25 5 -52 12 -60 16 -20 76 -20 84 0 5 14 -2 17 -31 14 -11 0 -20 42
-15 69 3 16 11 22 29 22 19 0 24 4 19 16 -3 9 -6 17 -6 19 0 2 -9 1 -19 -2
-14 -4 -20 1 -23 18 -4 30 -48 38 -48 9z"/>
<path d="M949 713 c-12 -3 -15 -19 -16 -78 0 -72 1 -75 24 -75 12 0 23 6 24
13 0 6 2 29 3 50 2 39 20 61 44 52 17 -6 28 23 14 37 -8 8 -18 7 -35 -5 -18
-12 -25 -12 -33 -3 -5 7 -16 11 -25 9z"/>
<path d="M1109 708 c-32 -11 -54 -57 -45 -93 11 -45 75 -71 129 -53 41 15 36
41 -7 33 -40 -8 -83 2 -69 16 6 6 33 11 61 11 55 2 60 9 41 52 -17 37 -62 51
-110 34z m67 -46 c-5 -8 -66 -15 -66 -8 0 3 7 12 16 20 12 12 20 13 35 5 11
-5 18 -13 15 -17z"/>
<path d="M1277 709 c-9 -5 -14 -16 -11 -24 4 -10 12 -12 31 -4 16 6 31 5 46
-3 23 -12 22 -13 -35 -23 -45 -7 -65 -36 -50 -70 13 -29 44 -36 76 -19 14 7
26 9 26 3 0 -5 11 -9 24 -9 22 0 24 4 24 55 0 71 -19 95 -74 100 -22 1 -48 -1
-57 -6z m73 -99 c-12 -22 -35 -26 -46 -9 -8 13 13 29 39 29 15 0 16 -3 7 -20z"/>
<path d="M1626 709 c-84 -24 -64 -148 24 -151 46 -1 80 10 80 27 0 11 -10 13
-43 9 -32 -5 -46 -2 -56 10 -15 18 -14 18 66 18 37 0 41 2 37 21 -6 34 -26 67
-40 67 -7 0 -18 2 -26 4 -7 2 -26 0 -42 -5z m57 -42 c4 -10 -5 -14 -28 -15
-26 -1 -33 2 -28 13 7 19 49 20 56 2z"/>
<path d="M2260 708 c0 -5 14 -41 30 -80 31 -72 33 -98 6 -98 -18 0 -29 -27
-13 -33 7 -2 24 0 39 5 21 8 33 26 62 99 42 104 43 111 14 107 -15 -2 -25 -15
-36 -46 -16 -48 -24 -46 -41 9 -9 27 -19 38 -36 42 -14 2 -25 0 -25 -5z"/>
<path d="M2993 709 c-14 -5 -21 -14 -17 -23 4 -11 12 -13 27 -7 20 8 76 -4 66
-13 -2 -2 -22 -6 -44 -9 -55 -7 -80 -45 -52 -79 19 -23 42 -28 71 -13 14 8 26
10 26 4 0 -5 11 -9 24 -9 23 0 24 3 22 60 -1 38 -7 66 -17 75 -18 18 -75 26
-106 14z m77 -87 c0 -14 -23 -32 -42 -32 -20 0 -21 1 -12 24 6 16 54 23 54 8z"/>
<path d="M3168 707 c0 -7 -2 -42 -2 -79 -1 -64 0 -68 21 -68 19 0 23 6 24 33
1 66 17 93 47 82 18 -7 28 25 11 36 -9 5 -22 3 -36 -7 -13 -8 -23 -10 -23 -5
0 13 -40 21 -42 8z"/>
<path d="M3306 710 c-1 -3 -2 -36 -2 -75 1 -65 3 -70 24 -73 19 -3 22 1 23 32
4 110 2 122 -22 122 -11 0 -22 -3 -23 -6z"/>
<path d="M3421 710 c-8 -4 -16 -15 -17 -23 -2 -12 4 -13 28 -6 19 5 38 4 50
-2 25 -14 19 -19 -26 -23 -50 -3 -73 -27 -60 -62 12 -35 44 -46 78 -29 14 8
26 10 26 4 0 -5 11 -9 25 -9 23 0 24 2 21 61 -2 37 -9 66 -18 76 -18 17 -87
26 -107 13z m79 -88 c0 -14 -23 -32 -42 -32 -20 0 -25 26 -5 33 20 8 47 8 47
-1z"/>
<path d="M3613 709 c-13 -4 -23 -12 -24 -16 0 -4 -2 -16 -4 -25 -4 -22 16 -39
56 -47 42 -8 32 -26 -13 -25 -31 1 -38 -3 -38 -18 0 -13 8 -18 28 -19 76 -3
102 9 102 46 0 28 -15 41 -57 50 -34 7 -43 20 -20 28 6 2 24 0 39 -4 30 -8 41
-1 29 19 -9 15 -70 22 -98 11z"/>
<path d="M3662 493 c-30 -6 -25 -37 6 -41 18 -3 22 1 22 22 0 14 -1 25 -2 25
-2 -1 -13 -4 -26 -6z"/>
<path d="M742 478 c-7 -7 -12 -20 -12 -30 0 -10 -7 -18 -15 -18 -8 0 -15 -5
-15 -10 0 -6 7 -13 15 -16 11 -5 15 -22 15 -65 0 -56 1 -59 25 -59 24 0 25 3
25 60 0 53 2 60 20 60 11 0 20 7 20 15 0 8 -9 15 -20 15 -11 0 -20 7 -20 15 0
9 9 15 23 15 14 0 24 6 24 15 0 19 -67 21 -85 3z"/>
<path d="M1694 385 l1 -106 25 3 c22 3 25 7 23 41 -3 44 11 77 32 77 13 0 28
-28 24 -46 -1 -5 -1 -24 0 -41 1 -28 5 -33 26 -33 24 0 25 3 25 60 0 46 -5 65
-19 79 -21 21 -68 20 -84 -2 -5 -7 -7 6 -5 31 3 40 2 42 -23 42 l-26 0 1 -105z"/>
<path d="M2194 481 c-5 -3 -9 -49 -9 -101 0 -94 0 -95 26 -98 25 -3 25 -2 24
58 -1 33 2 60 5 60 4 0 20 -26 36 -57 26 -51 34 -58 62 -61 l32 -3 0 100 c0
60 -4 102 -10 102 -5 1 -16 2 -22 3 -9 1 -15 -21 -18 -67 l-5 -68 -33 65 c-19
36 -37 66 -40 67 -4 0 -14 2 -23 4 -9 1 -20 0 -25 -4z"/>
<path d="M3109 476 c-1 -6 -2 -53 -3 -104 l-1 -92 28 0 c16 0 27 5 26 13 -6
45 1 57 34 57 69 0 104 59 63 107 -18 21 -32 25 -84 28 -41 2 -62 -1 -63 -9z
m92 -36 c34 -19 18 -50 -26 -50 -16 0 -26 48 -11 54 16 7 16 7 37 -4z"/>
<path d="M1570 460 c0 -11 -8 -24 -17 -29 -17 -10 -17 -12 -2 -24 11 -8 17
-28 17 -55 0 -24 6 -50 13 -58 11 -14 70 -20 82 -8 10 11 -4 33 -19 27 -17 -6
-32 31 -26 64 3 17 11 23 29 23 18 0 24 5 21 18 -2 11 -11 16 -25 14 -15 -2
-22 4 -26 20 -8 30 -47 36 -47 8z"/>
<path d="M4110 459 c0 -10 -8 -23 -17 -28 -16 -10 -17 -12 -2 -23 9 -8 16 -30
17 -57 1 -24 7 -50 13 -57 16 -19 75 -18 83 1 3 8 1 16 -4 16 -6 1 -15 2 -20
3 -16 2 -26 23 -24 53 1 23 5 28 28 28 18 -1 26 4 26 17 0 17 -10 22 -37 19
-7 -1 -14 3 -14 9 -1 5 -2 16 -3 23 -2 20 -46 17 -46 -4z"/>
<path d="M844 358 c-1 -77 0 -78 25 -78 24 0 26 3 24 45 -1 49 18 80 44 71 17
-7 29 22 15 36 -8 8 -18 6 -36 -6 -19 -12 -26 -13 -26 -4 0 7 -10 13 -23 13
-22 0 -23 -3 -23 -77z"/>
<path d="M1014 428 c-23 -11 -44 -47 -44 -78 0 -62 103 -97 150 -50 25 25 26
80 3 109 -20 24 -76 34 -109 19z m60 -34 c21 -8 21 -58 0 -75 -33 -27 -68 32
-41 69 11 14 18 15 41 6z"/>
<path d="M1190 431 c-12 -5 -16 -22 -15 -76 0 -67 1 -70 24 -70 23 0 25 4 24
45 -1 47 10 70 33 70 10 0 14 -16 14 -60 0 -57 1 -60 25 -60 23 0 25 3 25 49
0 49 18 79 40 66 5 -3 10 -31 10 -61 0 -51 1 -54 25 -54 24 0 25 2 25 64 0 65
-10 84 -47 91 -10 1 -28 -3 -40 -11 -18 -11 -23 -11 -33 1 -11 14 -54 14 -68
1 -3 -3 -10 -2 -16 3 -6 5 -18 6 -26 2z"/>
<path d="M1928 428 c-49 -17 -58 -100 -15 -136 28 -24 120 -15 125 12 3 15 -3
16 -46 10 -40 -5 -50 -3 -55 10 -7 17 -1 19 43 18 42 -2 70 8 70 23 0 23 -43
65 -70 69 -14 2 -37 0 -52 -6z m62 -44 c0 -9 -9 -13 -25 -12 -26 2 -34 23 -12
31 18 6 37 -3 37 -19z"/>
<path d="M2443 428 c-44 -21 -53 -97 -15 -131 17 -15 39 -20 79 -18 54 3 83
85 46 130 -20 24 -77 33 -110 19z m73 -53 c8 -30 0 -53 -21 -61 -34 -13 -54
37 -30 76 12 20 44 11 51 -15z"/>
<path d="M2623 432 c-20 -3 -23 -9 -22 -50 2 -93 29 -125 83 -97 14 8 26 10
26 4 0 -5 10 -9 23 -9 23 0 23 3 23 74 -1 63 -4 76 -18 80 -23 5 -29 -5 -33
-59 -3 -50 -10 -65 -30 -65 -16 0 -23 23 -27 85 -3 35 -6 40 -25 37z"/>
<path d="M2824 432 c-19 -3 -21 -9 -20 -78 1 -70 2 -74 24 -74 18 0 22 6 22
29 0 16 3 43 6 60 5 25 11 31 28 29 21 -3 23 -8 25 -80 1 -33 4 -38 25 -38 24
0 25 2 21 63 -1 34 -3 65 -4 70 -2 16 -52 27 -73 16 -11 -6 -23 -7 -27 -2 -3
4 -15 7 -27 5z"/>
<path d="M3318 427 c-1 -7 -2 -43 -3 -80 -1 -67 0 -68 24 -65 22 3 25 8 25 51
1 51 17 71 49 61 15 -5 18 -1 15 18 -4 27 -25 31 -50 10 -10 -8 -18 -10 -18
-5 0 15 -40 24 -42 10z"/>
<path d="M3483 428 c-57 -27 -51 -126 10 -145 65 -19 117 16 117 80 -1 52 -74
90 -127 65z m67 -42 c16 -20 9 -56 -13 -70 -14 -9 -21 -7 -32 7 -7 10 -12 26
-10 35 2 9 4 23 4 30 1 17 36 15 51 -2z"/>
<path d="M3784 429 c-65 -19 -70 -109 -7 -140 40 -20 106 -12 111 14 3 14 -2
16 -40 11 -33 -5 -47 -2 -57 10 -15 18 -17 17 64 20 36 1 40 3 37 26 -5 49
-53 75 -108 59z m59 -43 c4 -11 -2 -14 -24 -14 -17 1 -29 6 -29 15 0 18 46 17
53 -1z"/>
<path d="M3958 422 c-13 -9 -25 -17 -27 -18 -8 -7 -8 -71 1 -87 22 -42 122
-55 125 -17 1 16 -4 18 -32 13 -28 -4 -35 -1 -46 18 -7 13 -12 24 -12 24 0 0
5 11 12 24 11 19 18 22 46 18 29 -5 33 -3 32 14 -1 10 -6 19 -12 20 -5 1 -22
2 -37 3 -16 2 -38 -4 -50 -12z"/>
<path d="M3644 349 c0 -65 -4 -84 -17 -94 -24 -17 -21 -35 6 -35 38 0 57 30
58 91 2 112 1 119 -24 119 -23 0 -23 -3 -23 -81z"/>
</g>
</svg>
